<svg id="Layer_1" data-name="Layer 1" xmlns="http://www.w3.org/2000/svg" viewBox="0 0 174 188.97"><defs><style>.cls-1{fill:#db2777;}.cls-2{fill:#231f20;}</style></defs><path class="cls-1" d="M110.75,9.45a16.93,16.93,0,0,0-10-4H18.39a5.83,5.83,0,0,0-5.81,5.82v134c0,3.19,1.89,4,4.21,1.81l24.36-23.14a15.55,15.55,0,0,0,4.22-9.82V40.53a5.84,5.84,0,0,1,5.82-5.82H100.7a5.84,5.84,0,0,1,5.82,5.82V84.16c0,3.2,1.9,4,4.23,1.82l24.63-23.29a15.55,15.55,0,0,0,4.22-9.82V42.55a15.52,15.52,0,0,0-4.22-9.81Z" transform="translate(-12.58 -5.45)"/><path class="cls-2" d="M88.4,190.43a16.93,16.93,0,0,0,10,4h82.31a5.84,5.84,0,0,0,5.82-5.82v-134c0-3.19-1.9-4-4.22-1.81L158,76a15.55,15.55,0,0,0-4.22,9.82v73.56a5.84,5.84,0,0,1-5.82,5.82H98.45a5.84,5.84,0,0,1-5.82-5.82V115.72c0-3.2-1.9-4-4.23-1.82L63.78,137.19A15.51,15.51,0,0,0,59.55,147v10.32a15.48,15.48,0,0,0,4.23,9.81Z" transform="translate(-12.58 -5.45)"/></svg>