<?xml version="1.0" encoding="utf-8"?>
<!-- Generator: Adobe Illustrator 25.3.1, SVG Export Plug-In . SVG Version: 6.00 Build 0)  -->
<svg version="1.1" id="Layer_1" xmlns="http://www.w3.org/2000/svg" xmlns:xlink="http://www.w3.org/1999/xlink" x="0px" y="0px" viewBox="0 0 20 20" style="display: block;">
	<style type="text/css">
	.st0{fill:#F7971D;}
</style>
	<path class="st0" d="M18.16,3.95H1.84C1.33,4.01,1.05,4.32,1,4.89v9.38c0.05,0.57,0.33,0.88,0.83,0.93h16.34
	c0.5-0.06,0.78-0.37,0.83-0.93V4.89C18.95,4.32,18.67,4.01,18.16,3.95" />
	<path fill="currentColor" d="M17.35,8.32c-0.28-0.31-0.65-0.5-1.05-0.59c-0.12-0.03-0.25-0.05-0.4-0.06c-0.54-0.05-1.22,0.17-1.54,0.43l0.08-2.2h-1.3
	v6.8h1.21v-0.37c0.28,0.22,0.73,0.49,1.41,0.49c0.03,0,0.05,0,0.08,0c0.02,0,0.04,0,0.05,0c0.57,0,1.06-0.23,1.46-0.68
	c0.4-0.46,0.6-1.1,0.6-1.94C17.94,9.38,17.74,8.76,17.35,8.32 M16.3,11.42c-0.2,0.25-0.45,0.37-0.74,0.37
	c-0.37,0-0.67-0.17-0.9-0.52c-0.16-0.24-0.24-0.62-0.24-1.13c0-0.49,0.1-0.86,0.31-1.11c0.21-0.24,0.47-0.36,0.78-0.36
	c0.32,0,0.58,0.12,0.78,0.37c0.2,0.25,0.31,0.66,0.31,1.22C16.6,10.79,16.5,11.18,16.3,11.42 M11.02,9.86c0,0.71-0.03,1.15-0.1,1.33
	c-0.06,0.18-0.19,0.33-0.36,0.45c-0.18,0.12-0.38,0.18-0.6,0.18c-0.19,0-0.36-0.05-0.48-0.14c-0.13-0.09-0.21-0.22-0.26-0.37
	c-0.05-0.16-0.07-0.58-0.07-1.27V7.78h-1.3v3.12c0,0.46,0.06,0.83,0.18,1.09c0.12,0.26,0.31,0.47,0.57,0.61
	c0.26,0.15,0.56,0.22,0.89,0.22c0.05,0,0.1,0,0.15-0.01c0,0,0,0,0,0c0.83-0.02,1.26-0.4,1.48-0.65v0.54h1.21V7.78h-1.3L11.02,9.86z
	 M6.77,8.27c-0.12-0.17-0.3-0.32-0.54-0.43C6.01,7.74,5.76,7.68,5.5,7.67c0,0-0.01,0-0.01,0C4.94,7.64,4.23,7.8,3.9,8.12V5.91H2.6
	v6.8h1.3v-2.47c0-0.41,0.04-0.73,0.12-0.94C4.1,9.09,4.23,8.93,4.4,8.83c0.17-0.1,0.36-0.16,0.58-0.16c0.19,0,0.35,0.04,0.47,0.12
	c0.13,0.08,0.21,0.19,0.26,0.33c0.05,0.14,0.07,0.47,0.07,0.98v2.6h1.3V9.82c0-0.44-0.02-0.77-0.07-0.98
	C6.98,8.63,6.89,8.44,6.77,8.27" />
</svg>