<?xml version="1.0" encoding="utf-8"?>
<!-- Generator: Adobe Illustrator 25.3.1, SVG Export Plug-In . SVG Version: 6.00 Build 0)  -->
<svg version="1.1" id="Layer_1" xmlns="http://www.w3.org/2000/svg" xmlns:xlink="http://www.w3.org/1999/xlink" x="0px" y="0px" viewBox="0 0 20 20" style="display: block;">
	<!-- <style type="text/css">
	.st0{fill-rule:evenodd;clip-rule:evenodd;fill:#313131;}
	.st1{fill:#00AFF0;}
</style> -->
	<path fill="currentColor" class="st0" d="M9.66,1c-5.15,0.01-9.31,4.2-9.29,9.34c0.01,5.15,4.2,9.31,9.34,9.29c5.14-0.01,9.3-4.19,9.29-9.32
	C18.99,5.16,14.81,0.99,9.66,1z M9.66,18.66c-4.61-0.01-8.34-3.76-8.33-8.37C1.34,5.69,5.09,1.96,9.7,1.97
	c4.6,0.01,8.32,3.74,8.33,8.34C18.02,14.93,14.27,18.66,9.66,18.66L9.66,18.66z" />
	<path fill="currentColor" class="st1" d="M13.53,9.71V8.95c0-0.91-0.37-1.78-1.02-2.42c-0.65-0.65-1.54-1.01-2.46-1.01H9.42c-0.92,0-1.8,0.36-2.46,1.01
	C6.31,7.17,5.94,8.04,5.94,8.95v0.76l-0.43,0.78v1.12c0,1.01,0.41,1.98,1.14,2.69c0.73,0.72,1.72,1.12,2.74,1.12h0.7
	c1.02,0,2-0.4,2.73-1.12c0.73-0.71,1.14-1.68,1.14-2.69v-1.12L13.53,9.71z M10.14,13.15v0.9c0,0.13-0.07,0.26-0.18,0.33H9.79
	c-0.02,0-0.04,0-0.06,0H9.69c-0.02,0-0.03,0-0.05,0H9.57c-0.11-0.07-0.18-0.2-0.19-0.34v-0.89c-0.55-0.21-0.82-0.83-0.61-1.38
	c0.16-0.42,0.57-0.69,1.01-0.68h0.02c0.59-0.01,1.08,0.46,1.09,1.05c0.01,0.45-0.27,0.85-0.68,1.01H10.14z M11.98,9.74H7.5V8.95
	c0-0.5,0.21-0.99,0.57-1.34c0.36-0.36,0.85-0.56,1.36-0.56h0.63c0.51,0,1,0.2,1.36,0.56c0.36,0.35,0.56,0.83,0.57,1.34L11.98,9.74z" />
</svg>