<svg width="56.966" height="56.966" xmlns="http://www.w3.org/2000/svg">

 <g>
  <title>background</title>
  <rect fill="none" id="canvas_background" height="402" width="582" y="-1" x="-1"/>
 </g>
 <g>
  <title>Layer 1</title>
  <path fill="#db2777" stroke="#db2777" id="svg_1" d="m55.146,51.887l-13.558,-14.101c3.486,-4.144 5.396,-9.358 5.396,-14.786c0,-12.682 -10.318,-23 -23,-23s-23,10.318 -23,23s10.318,23 23,23c4.761,0 9.298,-1.436 13.177,-4.162l13.661,14.208c0.571,0.593 1.339,0.92 2.162,0.92c0.779,0 1.518,-0.297 2.079,-0.837c1.192,-1.147 1.23,-3.049 0.083,-4.242zm-31.162,-45.887c9.374,0 17,7.626 17,17s-7.626,17 -17,17s-17,-7.626 -17,-17s7.626,-17 17,-17z"/>
 </g>
</svg>