<?xml version="1.0" encoding="utf-8"?>
<!-- Generator: Adobe Illustrator 25.2.0, SVG Export Plug-In . SVG Version: 6.00 Build 0)  -->
<svg version="1.1" id="Layer_1" xmlns="http://www.w3.org/2000/svg" xmlns:xlink="http://www.w3.org/1999/xlink" x="0px" y="0px"
	 viewBox="0 0 200 200" style="enable-background:new 0 0 200 200;" xml:space="preserve">
<style type="text/css">
	.st0{fill:#DB2777;}
	.st1{fill:#231F20;}
</style>
<path class="st0" d="M110.75,9.45c-2.32-2.2-6.85-4-10.05-4H51.19c-3.2,0-8.44,0-11.64,0H18.39c-3.2,0-5.82,2.62-5.82,5.82v133.96
	c0,3.2,1.9,4.01,4.22,1.81l24.36-23.14c2.32-2.2,4.22-6.62,4.22-9.82V40.53c0-3.2,2.62-5.82,5.82-5.82h49.51
	c3.2,0,5.82,2.62,5.82,5.82v11.4c0,3.2,0,8.44,0,11.64v20.59c0,3.2,1.9,4.02,4.23,1.82l24.63-23.29c2.32-2.2,4.23-6.61,4.23-9.81
	V42.55c0-3.2-1.9-7.62-4.23-9.81L110.75,9.45z"/>
<path class="st1" d="M88.4,190.43c2.32,2.2,6.85,4,10.05,4h49.51c3.2,0,8.44,0,11.64,0h21.16c3.2,0,5.82-2.62,5.82-5.82V54.65
	c0-3.2-1.9-4.01-4.22-1.81L158,75.97c-2.32,2.2-4.22,6.62-4.22,9.82v73.56c0,3.2-2.62,5.82-5.82,5.82H98.45
	c-3.2,0-5.82-2.62-5.82-5.82v-11.4c0-3.2,0-8.44,0-11.64v-20.59c0-3.2-1.9-4.02-4.23-1.82l-24.63,23.29
	c-2.32,2.2-4.23,6.61-4.23,9.81v10.32c0,3.2,1.9,7.62,4.23,9.81L88.4,190.43z"/>
</svg>
